<?xml version="1.0" encoding="UTF-8"?>
<svg xmlns="http://www.w3.org/2000/svg" xmlns:xlink="http://www.w3.org/1999/xlink" width="150pt" height="149.999998pt" viewBox="0 0 150 149.999998" version="1.2">
<defs>
<clipPath id="clip1">
  <path d="M 76.730469 0 L 135.980469 0 L 135.980469 69.75 L 76.730469 69.75 Z M 76.730469 0 "/>
</clipPath>
<clipPath id="clip2">
  <path d="M 10 36 L 78 36 L 78 103 L 10 103 Z M 10 36 "/>
</clipPath>
<clipPath id="clip3">
  <path d="M 100.863281 76.648438 L 51.542969 125.96875 L 9.644531 84.074219 L 58.964844 34.753906 Z M 100.863281 76.648438 "/>
</clipPath>
<clipPath id="clip4">
  <path d="M 101.226562 77.011719 L 51.902344 126.332031 L 9.476562 83.90625 L 58.796875 34.585938 Z M 101.226562 77.011719 "/>
</clipPath>
<clipPath id="clip5">
  <path d="M 71 81 L 138 81 L 138 149 L 71 149 Z M 71 81 "/>
</clipPath>
<clipPath id="clip6">
  <path d="M 97.375 171.269531 L 48.050781 121.949219 L 89.949219 80.054688 L 139.269531 129.375 Z M 97.375 171.269531 "/>
</clipPath>
<clipPath id="clip7">
  <path d="M 97.011719 171.632812 L 47.691406 122.3125 L 90.117188 79.886719 L 139.4375 129.207031 Z M 97.011719 171.632812 "/>
</clipPath>
</defs>
<g id="surface1">
<g clip-path="url(#clip1)" clip-rule="nonzero">
<path style=" stroke:none;fill-rule:nonzero;fill:rgb(96.859741%,86.268616%,41.178894%);fill-opacity:1;" d="M 81.847656 69.136719 L 134.769531 37.386719 L 134.769531 37.367188 C 135.792969 36.769531 136.492188 35.664062 136.492188 34.382812 C 136.492188 33.234375 135.929688 32.222656 135.078125 31.59375 L 135.078125 31.585938 L 135.042969 31.5625 C 134.878906 31.445312 134.707031 31.347656 134.523438 31.261719 L 81.824219 0.601562 C 81.28125 0.234375 80.625 0.0195312 79.921875 0.0195312 C 78.027344 0.0195312 76.492188 1.566406 76.492188 3.480469 L 76.492188 66.273438 C 76.492188 68.1875 78.027344 69.734375 79.921875 69.734375 C 80.636719 69.734375 81.296875 69.511719 81.847656 69.136719 Z M 81.847656 69.136719 "/>
</g>
<g clip-path="url(#clip2)" clip-rule="nonzero">
<g clip-path="url(#clip3)" clip-rule="nonzero">
<g clip-path="url(#clip4)" clip-rule="nonzero">
<path style=" stroke:none;fill-rule:nonzero;fill:rgb(48.629761%,90.19928%,84.309387%);fill-opacity:1;" d="M 13.699219 87.257812 L 73.570312 102.226562 L 73.582031 102.214844 C 74.730469 102.515625 76.007812 102.226562 76.914062 101.320312 C 77.726562 100.507812 78.042969 99.398438 77.886719 98.351562 L 77.894531 98.34375 L 77.882812 98.304688 C 77.847656 98.105469 77.796875 97.914062 77.730469 97.722656 L 62.144531 38.78125 C 62.019531 38.136719 61.710938 37.519531 61.210938 37.019531 C 59.871094 35.683594 57.691406 35.691406 56.339844 37.042969 L 11.9375 81.445312 C 10.585938 82.796875 10.574219 84.980469 11.914062 86.316406 C 12.417969 86.824219 13.042969 87.136719 13.699219 87.257812 Z M 13.699219 87.257812 "/>
</g>
</g>
</g>
<g clip-path="url(#clip5)" clip-rule="nonzero">
<g clip-path="url(#clip6)" clip-rule="nonzero">
<g clip-path="url(#clip7)" clip-rule="nonzero">
<path style=" stroke:none;fill-rule:nonzero;fill:rgb(90.19928%,51.759338%,76.469421%);fill-opacity:1;" d="M 86.765625 84.109375 L 71.796875 143.980469 L 71.808594 143.992188 C 71.503906 145.140625 71.792969 146.414062 72.699219 147.320312 C 73.511719 148.132812 74.625 148.453125 75.671875 148.292969 L 75.679688 148.300781 L 75.71875 148.289062 C 75.914062 148.257812 76.109375 148.203125 76.300781 148.136719 L 135.242188 132.554688 L 135.242188 132.550781 C 135.886719 132.425781 136.503906 132.117188 137 131.617188 C 138.339844 130.28125 138.328125 128.097656 136.976562 126.746094 L 92.574219 82.34375 C 91.222656 80.992188 89.042969 80.984375 87.703125 82.320312 C 87.199219 82.828125 86.886719 83.453125 86.765625 84.109375 Z M 86.765625 84.109375 "/>
</g>
</g>
</g>
</g>
</svg>
